<svg width="293" height="73" viewBox="0 0 293 73" fill="none" xmlns="http://www.w3.org/2000/svg">
<path fill-rule="evenodd" clip-rule="evenodd" d="M0 0H12.4387H30.9585H43.3971H62.1934H74.6319V13.9338V69.6694H62.1934V13.9338H43.3971V69.6694H30.9585V13.9338H12.4387V69.6694H0V13.9338V0ZM293 69.6694V13.9338V0H280.561H255.684H243.245V13.9338V69.6694H255.684V13.9338H280.561V69.6694H293ZM119.964 72.4561C139.81 72.4561 155.898 56.2362 155.898 36.228C155.898 16.2199 139.81 0 119.964 0C100.118 0 84.0301 16.2199 84.0301 36.228C84.0301 56.2362 100.118 72.4561 119.964 72.4561ZM119.964 58.522C107.751 58.522 97.851 48.5406 97.851 36.228C97.851 23.9153 107.751 13.9338 119.964 13.9338C132.177 13.9338 142.077 23.9153 142.077 36.228C142.077 48.5406 132.177 58.522 119.964 58.522ZM233.847 36.228C233.847 56.2362 217.759 72.4561 197.913 72.4561C178.067 72.4561 161.979 56.2362 161.979 36.228C161.979 16.2199 178.067 0 197.913 0C217.759 0 233.847 16.2199 233.847 36.228ZM175.8 36.228C175.8 48.5406 185.7 58.522 197.913 58.522C210.126 58.522 220.026 48.5406 220.026 36.228C220.026 23.9153 210.126 13.9338 197.913 13.9338C185.7 13.9338 175.8 23.9153 175.8 36.228Z" fill="white"/>
</svg>
